# xmcd
#
# Track frame offsets: 
#        150
#        19620
#        39847
#        55792
#        73300
#        85982
#        98895
#        119840
#        130947
#        151780
#        178740
#        199252
#        220930
#
# Disc length: 3145 seconds
#
# Revision: 0
# Processed by: cddbd v1.5.2PL0 Copyright (c) Steve Scherf et al.
# Submitted via: ExactAudioCopy v0.95b4
#
DISCID=b70c470d
DTITLE=Goran Ringbom - Indiansommar I San Antonio, Texas
DYEAR=1993
DGENRE=Gospel
TTITLE0=Mr Kannibal
TTITLE1=Skovde
TTITLE2=Never Ending Song Of Love
TTITLE3=Volver Volver
TTITLE4=Jag Har Int' Tid
TTITLE5=Itsy Bitsy Teenie Weenie Yellow Polkadot Bikini
TTITLE6=Jubilee
TTITLE7=Riktig Karlek
TTITLE8=Margarita
TTITLE9=Det Kallar Jag For Blues
TTITLE10=Ut Ur En Oppen Hand
TTITLE11=Tank Om
TTITLE12=Viggen
EXTD=
EXTT0=
EXTT1=
EXTT2=
EXTT3=
EXTT4=
EXTT5=
EXTT6=
EXTT7=
EXTT8=
EXTT9=
EXTT10=
EXTT11=
EXTT12=
PLAYORDER=
